<svg xmlns="http://www.w3.org/2000/svg" height="512pt" version="1.1" viewBox="-57 0 512 512.00177" width="512pt">
<g id="surface1">
<path d="M 100.585938 509.664062 L 70.097656 451.601562 L 4.605469 454.992188 C 1.15625 455.171875 -1.128906 451.46875 0.582031 448.46875 L 123.894531 231.976562 L 231.5625 293.304688 L 108.253906 509.792969 C 106.542969 512.796875 102.191406 512.722656 100.585938 509.664062 Z M 100.585938 509.664062 " style=" stroke:none;fill-rule:nonzero;fill:rgb(99.215686%,44.313725%,36.078431%);fill-opacity:1;" />
<path d="M 100.585938 509.664062 L 70.097656 451.601562 L 177.726562 262.640625 L 231.5625 293.304688 L 108.253906 509.792969 C 106.542969 512.796875 102.191406 512.722656 100.585938 509.664062 Z M 100.585938 509.664062 " style=" stroke:none;fill-rule:nonzero;fill:rgb(93.333333%,33.72549%,27.45098%);fill-opacity:1;" />
<path d="M 297.777344 509.664062 L 328.265625 451.601562 L 393.757812 454.992188 C 397.207031 455.171875 399.488281 451.46875 397.78125 448.46875 L 274.46875 231.976562 L 166.796875 293.304688 L 290.109375 509.792969 C 291.820312 512.796875 296.171875 512.722656 297.777344 509.664062 Z M 297.777344 509.664062 " style=" stroke:none;fill-rule:nonzero;fill:rgb(93.333333%,33.72549%,27.45098%);fill-opacity:1;" />
<path d="M 297.777344 509.664062 L 328.265625 451.601562 L 220.632812 262.640625 L 166.796875 293.304688 L 290.109375 509.792969 C 291.820312 512.796875 296.171875 512.722656 297.777344 509.664062 Z M 297.777344 509.664062 " style=" stroke:none;fill-rule:nonzero;fill:rgb(99.215686%,44.313725%,36.078431%);fill-opacity:1;" />
<path d="M 210.332031 9.78125 L 227.214844 2.351562 C 238.714844 -2.714844 252.183594 0.605469 260.011719 10.433594 L 271.507812 24.859375 C 276.34375 30.933594 283.511719 34.691406 291.253906 35.226562 L 309.65625 36.488281 C 322.191406 37.351562 332.574219 46.550781 334.941406 58.890625 L 338.414062 77.003906 C 339.875 84.628906 344.472656 91.289062 351.085938 95.359375 L 366.789062 105.03125 C 377.488281 111.617188 382.40625 124.589844 378.769531 136.613281 L 373.425781 154.269531 C 371.175781 161.699219 372.152344 169.734375 376.113281 176.410156 L 385.527344 192.273438 C 391.9375 203.078125 390.265625 216.847656 381.453125 225.804688 L 368.519531 238.953125 C 363.074219 244.488281 360.203125 252.054688 360.609375 259.808594 L 361.574219 278.230469 C 362.230469 290.777344 354.347656 302.191406 342.382812 306.027344 L 324.820312 311.660156 C 317.425781 314.03125 311.371094 319.398438 308.125 326.449219 L 300.417969 343.207031 C 295.167969 354.621094 282.886719 361.070312 270.507812 358.90625 L 252.339844 355.730469 C 244.691406 354.394531 236.832031 356.328125 230.683594 361.066406 L 216.070312 372.320312 C 206.117188 379.988281 192.246094 379.988281 182.292969 372.320312 L 167.679688 361.066406 C 161.53125 356.328125 153.671875 354.390625 146.023438 355.730469 L 127.855469 358.90625 C 115.476562 361.070312 103.195312 354.621094 97.945312 343.207031 L 90.238281 326.449219 C 86.992188 319.398438 80.9375 314.03125 73.542969 311.660156 L 55.980469 306.027344 C 44.015625 302.191406 36.132812 290.777344 36.789062 278.226562 L 37.753906 259.808594 C 38.15625 252.054688 35.289062 244.488281 29.84375 238.953125 L 16.910156 225.804688 C 8.097656 216.847656 6.425781 203.078125 12.835938 192.273438 L 22.25 176.410156 C 26.210938 169.734375 27.1875 161.699219 24.9375 154.269531 L 19.59375 136.613281 C 15.953125 124.585938 20.875 111.617188 31.574219 105.03125 L 47.277344 95.359375 C 53.890625 91.289062 58.488281 84.628906 59.949219 77.003906 L 63.421875 58.890625 C 65.789062 46.550781 76.171875 37.351562 88.707031 36.488281 L 107.109375 35.222656 C 114.851562 34.691406 122.019531 30.929688 126.855469 24.859375 L 138.351562 10.433594 C 146.179688 0.605469 159.648438 -2.714844 171.148438 2.347656 L 188.03125 9.78125 C 195.136719 12.910156 203.226562 12.910156 210.332031 9.78125 Z M 210.332031 9.78125 " style=" stroke:none;fill-rule:nonzero;fill:rgb(99.607843%,81.568627%,40%);fill-opacity:1;" />
<path d="M 210.332031 9.78125 L 227.214844 2.351562 C 238.714844 -2.714844 252.183594 0.605469 260.011719 10.433594 L 271.507812 24.859375 C 276.34375 30.933594 283.511719 34.691406 291.253906 35.226562 L 309.65625 36.488281 C 322.191406 37.351562 332.574219 46.550781 334.941406 58.890625 L 338.414062 77.003906 C 339.875 84.628906 344.472656 91.289062 351.085938 95.359375 L 366.789062 105.03125 C 377.488281 111.617188 382.40625 124.589844 378.769531 136.613281 L 373.425781 154.269531 C 371.175781 161.699219 372.152344 169.734375 376.113281 176.410156 L 385.527344 192.273438 C 391.9375 203.078125 390.265625 216.847656 381.453125 225.804688 L 368.519531 238.953125 C 363.074219 244.488281 360.203125 252.054688 360.609375 259.808594 L 361.574219 278.230469 C 362.230469 290.777344 354.347656 302.191406 342.382812 306.027344 L 324.820312 311.660156 C 317.425781 314.03125 311.371094 319.398438 308.125 326.449219 L 300.417969 343.207031 C 295.167969 354.621094 282.886719 361.070312 270.507812 358.90625 L 252.339844 355.730469 C 244.691406 354.394531 236.832031 356.328125 230.683594 361.066406 L 216.070312 372.320312 C 206.117188 379.988281 192.246094 379.988281 182.292969 372.320312 L 167.679688 361.066406 C 161.53125 356.328125 153.671875 354.390625 146.023438 355.730469 L 127.855469 358.90625 C 115.476562 361.070312 103.195312 354.621094 97.945312 343.207031 L 90.238281 326.449219 C 86.992188 319.398438 80.9375 314.03125 73.542969 311.660156 L 55.980469 306.027344 C 44.015625 302.191406 36.132812 290.777344 36.789062 278.226562 L 37.753906 259.808594 C 38.15625 252.054688 35.289062 244.488281 29.84375 238.953125 L 16.910156 225.804688 C 8.097656 216.847656 6.425781 203.078125 12.835938 192.273438 L 22.25 176.410156 C 26.210938 169.734375 27.1875 161.699219 24.9375 154.269531 L 19.59375 136.613281 C 15.953125 124.585938 20.875 111.617188 31.574219 105.03125 L 47.277344 95.359375 C 53.890625 91.289062 58.488281 84.628906 59.949219 77.003906 L 63.421875 58.890625 C 65.789062 46.550781 76.171875 37.351562 88.707031 36.488281 L 107.109375 35.222656 C 114.851562 34.691406 122.019531 30.929688 126.855469 24.859375 L 138.351562 10.433594 C 146.179688 0.605469 159.648438 -2.714844 171.148438 2.347656 L 188.03125 9.78125 C 195.136719 12.910156 203.226562 12.910156 210.332031 9.78125 Z M 210.332031 9.78125 " style=" stroke:none;fill-rule:nonzero;fill:rgb(99.607843%,81.568627%,40%);fill-opacity:1;" />
<path d="M 329.328125 189.035156 C 329.328125 260.917969 271.058594 319.1875 199.179688 319.1875 C 127.300781 319.1875 69.03125 260.917969 69.03125 189.035156 C 69.03125 117.15625 127.300781 58.886719 199.179688 58.886719 C 271.058594 58.886719 329.328125 117.15625 329.328125 189.035156 Z M 329.328125 189.035156 " style=" stroke:none;fill-rule:nonzero;fill:rgb(99.215686%,44.313725%,36.078431%);fill-opacity:1;" />
<path d="M 199.179688 58.890625 C 190.0625 58.890625 181.160156 59.832031 172.570312 61.617188 C 231.6875 73.898438 276.109375 126.277344 276.109375 189.039062 C 276.109375 251.796875 231.6875 304.175781 172.570312 316.460938 C 181.160156 318.246094 190.0625 319.1875 199.179688 319.1875 C 271.058594 319.1875 329.328125 260.917969 329.328125 189.039062 C 329.328125 117.15625 271.058594 58.890625 199.179688 58.890625 Z M 199.179688 58.890625 " style=" stroke:none;fill-rule:nonzero;fill:rgb(93.333333%,33.72549%,27.45098%);fill-opacity:1;" />
<path d="M 385.527344 192.273438 L 376.113281 176.410156 C 372.152344 169.734375 371.175781 161.699219 373.425781 154.269531 L 378.769531 136.613281 C 382.40625 124.585938 377.488281 111.617188 366.789062 105.03125 L 351.085938 95.359375 C 344.472656 91.285156 339.875 84.625 338.414062 77.003906 L 334.941406 58.886719 C 332.574219 46.546875 322.191406 37.351562 309.65625 36.488281 L 291.253906 35.222656 C 283.511719 34.691406 276.34375 30.929688 271.507812 24.859375 L 260.011719 10.433594 C 252.183594 0.605469 238.714844 -2.714844 227.214844 2.347656 L 216.328125 7.140625 C 287.328125 36.988281 337.1875 107.1875 337.1875 189.039062 C 337.1875 258.9375 300.824219 320.339844 245.984375 355.371094 C 248.09375 355.25 250.222656 355.359375 252.335938 355.730469 L 270.507812 358.90625 C 282.886719 361.066406 295.167969 354.621094 300.417969 343.207031 L 308.125 326.449219 C 311.367188 319.398438 317.425781 314.03125 324.820312 311.660156 L 342.382812 306.027344 C 354.347656 302.191406 362.226562 290.777344 361.570312 278.226562 L 360.609375 259.808594 C 360.203125 252.054688 363.074219 244.488281 368.519531 238.953125 L 381.453125 225.804688 C 390.265625 216.847656 391.9375 203.078125 385.527344 192.273438 Z M 385.527344 192.273438 " style=" stroke:none;fill-rule:nonzero;fill:rgb(96.078431%,70.980392%,33.72549%);fill-opacity:1;" />
<path d="M 202.160156 98.9375 L 220.984375 156.871094 C 221.402344 158.160156 222.605469 159.03125 223.960938 159.03125 L 284.875 159.03125 C 287.90625 159.03125 289.167969 162.914062 286.714844 164.695312 L 237.433594 200.5 C 236.335938 201.300781 235.878906 202.710938 236.296875 204 L 255.121094 261.933594 C 256.058594 264.820312 252.757812 267.21875 250.304688 265.433594 L 201.023438 229.628906 C 199.925781 228.832031 198.4375 228.832031 197.34375 229.628906 L 148.0625 265.433594 C 145.605469 267.21875 142.304688 264.820312 143.242188 261.933594 L 162.066406 204 C 162.484375 202.710938 162.027344 201.300781 160.929688 200.5 L 111.648438 164.695312 C 109.195312 162.914062 110.453125 159.03125 113.488281 159.03125 L 174.402344 159.03125 C 175.757812 159.03125 176.960938 158.160156 177.378906 156.871094 L 196.203125 98.9375 C 197.140625 96.050781 201.222656 96.050781 202.160156 98.9375 Z M 202.160156 98.9375 " style=" stroke:none;fill-rule:nonzero;fill:rgb(94.901961%,94.901961%,94.901961%);fill-opacity:1;" />
</g>
</svg>